<svg width="24" height="24" viewBox="0 0 24 24" fill="none" xmlns="http://www.w3.org/2000/svg">
<g clip-path="url(#clip0_413_69)">
<path d="M15.75 18H8.25V19.5H15.75V18Z" fill="#27553E"/>
<path d="M14.25 21H9.75V22.5H14.25V21Z" fill="#27553E"/>
<path d="M8.11057 13.6054C7.40817 13.0696 6.84827 12.3693 6.48018 11.5662C6.11208 10.7632 5.94708 9.88187 5.99969 9C6.00152 7.40926 6.63425 5.8842 7.75907 4.75938C8.88389 3.63455 10.409 3.00183 11.9997 3V1.5C10.0112 1.5022 8.10487 2.29309 6.69883 3.69913C5.29278 5.10518 4.5019 7.01155 4.49969 9C4.44878 10.0896 4.6575 11.1757 5.10868 12.1689C5.55985 13.162 6.24055 14.0337 7.09469 14.7121C7.85347 15.4131 8.24969 15.8111 8.24969 16.5H9.74969C9.74969 15.12 8.91659 14.3504 8.11057 13.6054Z" fill="#27553E"/>
<path d="M21 10.5H15C14.6023 10.4996 14.221 10.3414 13.9398 10.0602C13.6586 9.77899 13.5004 9.3977 13.5 9V3C13.5004 2.6023 13.6586 2.22101 13.9398 1.9398C14.221 1.65859 14.6023 1.50042 15 1.5H21C21.3977 1.50042 21.779 1.65859 22.0602 1.9398C22.3414 2.22101 22.4996 2.6023 22.5 3V9C22.4996 9.3977 22.3414 9.77899 22.0602 10.0602C21.779 10.3414 21.3977 10.4996 21 10.5ZM15 3V9H21V3H15Z" fill="#27553E"/>
<path d="M17.28 12C16.8977 12.6027 16.4268 13.1444 15.8833 13.6069C15.0802 14.3511 14.25 15.1208 14.25 16.5H15.75C15.75 15.8105 16.1448 15.4125 16.9014 14.7107C17.7854 13.9768 18.4886 13.0493 18.9567 12H17.28Z" fill="#27553E"/>
</g>
<defs>
<clipPath id="clip0_413_69">
<rect width="24" height="24" fill="white"/>
</clipPath>
</defs>
</svg>
