<svg width="24" height="24" viewBox="0 0 24 24" fill="none" xmlns="http://www.w3.org/2000/svg">
<g clip-path="url(#clip0_413_126)">
<path d="M22 24H2C0.897 24 0 23.103 0 22V7C0 5.897 0.897 5 2 5H12C12.276 5 12.5 5.224 12.5 5.5C12.5 5.776 12.276 6 12 6H2C1.4485 6 1 6.4485 1 7V22C1 22.5515 1.4485 23 2 23H22C22.5515 23 23 22.5515 23 22V7C23 6.4485 22.5515 6 22 6C21.724 6 21.5 5.776 21.5 5.5C21.5 5.224 21.724 5 22 5C23.103 5 24 5.897 24 7V22C24 23.103 23.103 24 22 24Z" fill="#6A00FF"/>
<path d="M22 22H5V7H10C10.276 7 10.5 7.224 10.5 7.5C10.5 7.776 10.276 8 10 8H6V21H21V8H20C19.724 8 19.5 7.776 19.5 7.5C19.5 7.224 19.724 7 20 7H22V22Z" fill="#6A00FF"/>
<path d="M4 21H0V8H4V21ZM1 20H3V9H1V20Z" fill="#6A00FF"/>
<path d="M8.71973 13.7798L10.0392 9.63135L19.0352 0.635848C19.7907 -0.120152 21.1082 -0.120152 21.8637 0.635848C22.6437 1.41585 22.6437 2.68435 21.8637 3.46385L12.8682 12.4598L8.71973 13.7798ZM10.9187 10.1663L10.2587 12.2403L12.3327 11.5803L21.1567 2.75735C21.5467 2.36735 21.5467 1.73335 21.1567 1.34335C20.7787 0.965348 20.1202 0.965348 19.7422 1.34335L10.9187 10.1663Z" fill="#6A00FF"/>
<path d="M3.5 12H0.5V13H3.5V12Z" fill="#6A00FF"/>
<path d="M3.5 16H0.5V17H3.5V16Z" fill="#6A00FF"/>
<path d="M20.8033 4.31791C20.6753 4.31791 20.5473 4.26891 20.4498 4.17141L18.3283 2.04991C18.1328 1.85441 18.1328 1.53841 18.3283 1.34291C18.5238 1.14741 18.8398 1.14741 19.0353 1.34291L21.1568 3.46441C21.3523 3.65991 21.3523 3.97591 21.1568 4.17141C21.0593 4.26941 20.9313 4.31791 20.8033 4.31791Z" fill="#6A00FF"/>
<path d="M17.9751 7.14653C17.8471 7.14653 17.7191 7.09753 17.6216 7.00003L15.5001 4.87853C15.3046 4.68303 15.3046 4.36703 15.5001 4.17153C15.6956 3.97603 16.0116 3.97603 16.2071 4.17153L18.3286 6.29303C18.5241 6.48853 18.5241 6.80453 18.3286 7.00003C18.2306 7.09753 18.1031 7.14653 17.9751 7.14653Z" fill="#6A00FF"/>
<path d="M12.6011 12.5206C12.4731 12.5206 12.3451 12.4716 12.2476 12.3741L10.1261 10.2526C9.93062 10.0571 9.93062 9.74105 10.1261 9.54555C10.3216 9.35005 10.6376 9.35005 10.8331 9.54555L12.9546 11.6671C13.1501 11.8626 13.1501 12.1786 12.9546 12.3741C12.8566 12.4716 12.7291 12.5206 12.6011 12.5206Z" fill="#6A00FF"/>
<path d="M8.50013 14.4999C8.37213 14.4999 8.24413 14.4509 8.14663 14.3534C7.95112 14.1579 7.95112 13.8419 8.14663 13.6464L9.13613 12.6569C9.33163 12.4614 9.64763 12.4614 9.84313 12.6569C10.0386 12.8524 10.0386 13.1684 9.84313 13.3639L8.85363 14.3534C8.75613 14.4509 8.62813 14.4999 8.50013 14.4999Z" fill="#6A00FF"/>
</g>
<defs>
<clipPath id="clip0_413_126">
<rect width="24" height="24" fill="white"/>
</clipPath>
</defs>
</svg>
