<svg width="14" height="18" viewBox="0 0 14 18" fill="none" xmlns="http://www.w3.org/2000/svg">
<path d="M13.0368 4.93015V16.8404C13.0368 17.481 12.5172 18 11.8772 18H1.15956C0.519048 18 1.78581e-09 17.481 1.78581e-09 16.8404V1.15956C-3.51545e-05 0.519048 0.519013 0 1.15956 0H8.10663L13.0368 4.93015Z" fill="#518EF8"/>
<path d="M9.85112 9.03711H3.18457V9.77789H9.85112V9.03711Z" fill="white"/>
<path d="M9.85112 10.6914H3.18457V11.4322H9.85112V10.6914Z" fill="white"/>
<path d="M9.85112 12.3459H3.18457V13.0867H9.85112V12.3459Z" fill="white"/>
<path d="M7.92558 14.0002H3.18457V14.741H7.92558V14.0002Z" fill="white"/>
<path d="M8.7793 4.82289L13.0368 6.57687V4.93001L10.6229 4.21729L8.7793 4.82289Z" fill="#3A5BBC"/>
<path d="M13.0366 4.93015H9.26601C8.62546 4.93015 8.10645 4.4111 8.10645 3.77059V0L13.0366 4.93015Z" fill="#ACD1FC"/>
</svg>
