<svg width="26" height="26" viewBox="0 0 26 26" fill="none" xmlns="http://www.w3.org/2000/svg">
<path d="M18.914 7.06241L15.2001 3.34822C14.6161 2.76565 13.8249 2.43848 13 2.43848C12.1751 2.43848 11.3839 2.76565 10.8 3.34822L7.08559 7.0624C6.64938 7.4988 6.30762 8.32439 6.30762 8.9413V22.2234C6.30804 22.5783 6.44921 22.9185 6.70014 23.1694C6.95108 23.4204 7.2913 23.5615 7.64618 23.562H18.3539C18.7087 23.5615 19.0489 23.4203 19.2998 23.1694C19.5507 22.9184 19.6918 22.5782 19.6922 22.2234V8.94131C19.6922 8.32401 19.3504 7.49881 18.914 7.06241ZM18.8797 22.2234C18.8796 22.3628 18.8242 22.4965 18.7256 22.5952C18.627 22.6938 18.4933 22.7493 18.3539 22.7495H7.64617C7.5067 22.7493 7.373 22.6938 7.27438 22.5952C7.17576 22.4966 7.12028 22.3629 7.1201 22.2234V8.94131C7.1201 8.53427 7.37262 7.9249 7.66025 7.63687L11.3744 3.9227C11.8059 3.49232 12.3905 3.25064 13 3.25064C13.6095 3.25064 14.1941 3.49232 14.6256 3.9227L18.3396 7.63687C18.6274 7.9245 18.8797 8.53427 18.8797 8.94131L18.8797 22.2234Z" fill="#FF7700"/>
<path d="M11.2131 14.8991C11.5025 14.899 11.7853 14.8131 12.0259 14.6524C12.2665 14.4916 12.454 14.2631 12.5647 13.9958C12.6755 13.7284 12.7045 13.4343 12.6481 13.1505C12.5918 12.8667 12.4525 12.6059 12.248 12.4013H12.2478C11.6948 11.8478 10.7307 11.8482 10.1785 12.4013C9.97388 12.6059 9.83454 12.8666 9.7781 13.1504C9.72166 13.4343 9.75065 13.7284 9.86139 13.9958C9.97214 14.2632 10.1597 14.4917 10.4003 14.6524C10.6409 14.8132 10.9237 14.899 11.2131 14.8991ZM10.7529 12.9757C10.8133 12.915 10.885 12.8668 10.964 12.8339C11.043 12.8009 11.1278 12.7839 11.2133 12.7838C11.2989 12.7837 11.3837 12.8004 11.4628 12.8331C11.542 12.8658 11.6138 12.9138 11.6744 12.9743C11.7349 13.0348 11.7829 13.1067 11.8156 13.1857C11.8484 13.2648 11.8652 13.3496 11.8651 13.4352C11.865 13.5208 11.848 13.6056 11.8151 13.6846C11.7822 13.7636 11.734 13.8354 11.6733 13.8957C11.5494 14.0141 11.3845 14.0802 11.2131 14.0802C11.0417 14.0802 10.8769 14.0141 10.7529 13.8957C10.6312 13.7736 10.5628 13.6082 10.5628 13.4357C10.5628 13.2633 10.6312 13.0978 10.7529 12.9757Z" fill="#FF7700"/>
<path d="M12.9997 6.93447C13.2789 6.93479 13.5519 6.85223 13.7842 6.69726C14.0165 6.54229 14.1976 6.32188 14.3045 6.06393C14.4114 5.80598 14.4394 5.5221 14.3849 5.24824C14.3304 4.97439 14.1958 4.72287 13.9982 4.52554H13.998C13.4644 3.99194 12.5341 3.99234 12.0017 4.52554C11.8042 4.72283 11.6696 4.9743 11.6151 5.2481C11.5605 5.5219 11.5885 5.80573 11.6953 6.06366C11.8022 6.32158 11.9831 6.542 12.2153 6.69702C12.4475 6.85203 12.7205 6.93467 12.9997 6.93447ZM12.5764 5.1C12.6744 5.00212 12.8033 4.94126 12.9412 4.92778C13.0791 4.9143 13.2174 4.94904 13.3325 5.02608C13.4476 5.10312 13.5325 5.2177 13.5727 5.35029C13.6128 5.48288 13.6057 5.62529 13.5526 5.75325C13.4996 5.88121 13.4038 5.98682 13.2816 6.05207C13.1594 6.11732 13.0183 6.13819 12.8824 6.11112C12.7466 6.08405 12.6243 6.01071 12.5365 5.9036C12.4486 5.79649 12.4006 5.66223 12.4006 5.5237C12.4004 5.44496 12.4159 5.36697 12.446 5.29424C12.4762 5.22151 12.5205 5.15549 12.5764 5.1Z" fill="#FF7700"/>
<path d="M13.7519 15.9744C13.5472 16.179 13.4079 16.4398 13.3514 16.7236C13.2949 17.0075 13.3239 17.3017 13.4346 17.5691C13.5454 17.8365 13.7329 18.0651 13.9736 18.2259C14.2142 18.3867 14.4972 18.4725 14.7866 18.4725C15.076 18.4725 15.3589 18.3867 15.5996 18.2259C15.8402 18.0651 16.0278 17.8365 16.1385 17.5691C16.2493 17.3017 16.2783 17.0075 16.2218 16.7236C16.1653 16.4398 16.0259 16.179 15.8212 15.9744C15.686 15.8374 15.5249 15.7287 15.3473 15.6544C15.1697 15.5802 14.9791 15.542 14.7866 15.542C14.5941 15.542 14.4035 15.5802 14.2259 15.6544C14.0483 15.7287 13.8872 15.8374 13.7519 15.9744ZM15.2468 17.4693C15.1403 17.5757 15.0002 17.642 14.8504 17.6567C14.7005 17.6715 14.5502 17.6338 14.425 17.5502C14.2998 17.4665 14.2075 17.342 14.1638 17.198C14.1201 17.0539 14.1277 16.8991 14.1853 16.76C14.243 16.6209 14.347 16.5061 14.4798 16.4351C14.6126 16.3641 14.7659 16.3414 14.9136 16.3707C15.0613 16.4001 15.1942 16.4798 15.2897 16.5962C15.3852 16.7126 15.4374 16.8585 15.4374 17.009C15.4372 17.1816 15.3687 17.3471 15.2468 17.4693Z" fill="#FF7700"/>
<path d="M15.8464 12.3759C15.8087 12.3381 15.7639 12.3082 15.7146 12.2878C15.6653 12.2673 15.6125 12.2568 15.5592 12.2568C15.5058 12.2568 15.453 12.2673 15.4037 12.2878C15.3544 12.3082 15.3097 12.3381 15.2719 12.3759L10.1532 17.4944C10.1154 17.5322 10.0855 17.5769 10.0651 17.6262C10.0447 17.6755 10.0342 17.7283 10.0342 17.7817C10.0342 17.835 10.0447 17.8878 10.0651 17.9371C10.0855 17.9864 10.1154 18.0312 10.1532 18.0689C10.1909 18.1066 10.2357 18.1365 10.2849 18.157C10.3342 18.1774 10.387 18.1879 10.4404 18.1879C10.4937 18.1879 10.5466 18.1774 10.5958 18.157C10.6451 18.1365 10.6899 18.1066 10.7276 18.0689L15.8464 12.9503C15.8841 12.9126 15.9141 12.8678 15.9345 12.8185C15.9549 12.7693 15.9654 12.7164 15.9654 12.6631C15.9654 12.6097 15.9549 12.5569 15.9345 12.5076C15.9141 12.4583 15.8841 12.4136 15.8464 12.3759Z" fill="#FF7700"/>
</svg>
