<svg width="32" height="32" viewBox="0 0 32 32" fill="none" xmlns="http://www.w3.org/2000/svg">
<path d="M8.0002 5.5998C8.0002 5.15798 8.35837 4.7998 8.8002 4.7998H13.6002C14.042 4.7998 14.4002 5.15798 14.4002 5.5998V10.3998C14.4002 10.8416 14.042 11.1998 13.6002 11.1998H8.8002C8.35837 11.1998 8.0002 10.8416 8.0002 10.3998V5.5998ZM18.4002 4.7998C17.9584 4.7998 17.6002 5.15798 17.6002 5.5998V10.3998C17.6002 10.8416 17.9584 11.1998 18.4002 11.1998H23.2002C23.642 11.1998 24.0002 10.8416 24.0002 10.3998V5.5998C24.0002 5.15798 23.642 4.7998 23.2002 4.7998H18.4002ZM19.2002 9.5998V6.3998H22.4002V9.5998H19.2002ZM9.6002 20.7998C10.4838 20.7998 11.2002 20.0835 11.2002 19.1998C11.2002 18.3161 10.4838 17.5998 9.6002 17.5998C8.71655 17.5998 8.0002 18.3161 8.0002 19.1998C8.0002 20.0835 8.71655 20.7998 9.6002 20.7998ZM17.6002 19.1998C17.6002 20.0835 16.8839 20.7998 16.0002 20.7998C15.1165 20.7998 14.4002 20.0835 14.4002 19.1998C14.4002 18.3161 15.1165 17.5998 16.0002 17.5998C16.8839 17.5998 17.6002 18.3161 17.6002 19.1998ZM22.4002 20.7998C23.2839 20.7998 24.0002 20.0835 24.0002 19.1998C24.0002 18.3161 23.2839 17.5998 22.4002 17.5998C21.5165 17.5998 20.8002 18.3161 20.8002 19.1998C20.8002 20.0835 21.5165 20.7998 22.4002 20.7998ZM3.2002 19.1998C3.2002 15.6652 6.06557 12.7998 9.6002 12.7998H22.4002C25.9348 12.7998 28.8002 15.6652 28.8002 19.1998C28.8002 22.7344 25.9348 25.5998 22.4002 25.5998H9.6002C6.06557 25.5998 3.2002 22.7344 3.2002 19.1998ZM9.6002 14.3998C6.94924 14.3998 4.8002 16.5488 4.8002 19.1998C4.8002 21.8508 6.94924 23.9998 9.6002 23.9998H22.4002C25.0512 23.9998 27.2002 21.8508 27.2002 19.1998C27.2002 16.5488 25.0512 14.3998 22.4002 14.3998H9.6002Z" fill="#DCAC72"/>
</svg>
