<svg width="24" height="24" viewBox="0 0 24 24" fill="none" xmlns="http://www.w3.org/2000/svg">
<path d="M20 2H4C3.44727 2 3 2.44727 3 3V21C3 21.5527 3.44727 22 4 22H20C20.5527 22 21 21.5527 21 21V3C21 2.44727 20.5527 2 20 2ZM19 20H5V4H19V20Z" fill="#FF7671"/>
<path d="M13 8H17C17.5527 8 18 7.55273 18 7C18 6.44727 17.5527 6 17 6H13C12.4473 6 12 6.44727 12 7C12 7.55273 12.4473 8 13 8Z" fill="#FF7671"/>
<path d="M13 13H17C17.5527 13 18 12.5527 18 12C18 11.4473 17.5527 11 17 11H13C12.4473 11 12 11.4473 12 12C12 12.5527 12.4473 13 13 13Z" fill="#FF7671"/>
<path d="M13 18H17C17.5527 18 18 17.5527 18 17C18 16.4473 17.5527 16 17 16H13C12.4473 16 12 16.4473 12 17C12 17.5527 12.4473 18 13 18Z" fill="#FF7671"/>
<path d="M7.29297 8.70703C7.48828 8.90234 7.74414 9 8 9C8.25586 9 8.51172 8.90234 8.70703 8.70703L10.707 6.70703C11.0977 6.31641 11.0977 5.68359 10.707 5.29297C10.3164 4.90234 9.68359 4.90234 9.29297 5.29297L8 6.58594L7.70703 6.29297C7.31641 5.90234 6.68359 5.90234 6.29297 6.29297C5.90234 6.68359 5.90234 7.31641 6.29297 7.70703L7.29297 8.70703Z" fill="#FF7671"/>
<path d="M7.29297 13.707C7.48828 13.9023 7.74414 14 8 14C8.25586 14 8.51172 13.9023 8.70703 13.707L10.707 11.707C11.0977 11.3164 11.0977 10.6836 10.707 10.293C10.3164 9.90234 9.68359 9.90234 9.29297 10.293L8 11.5859L7.70703 11.293C7.31641 10.9023 6.68359 10.9023 6.29297 11.293C5.90234 11.6836 5.90234 12.3164 6.29297 12.707L7.29297 13.707Z" fill="#FF7671"/>
<path d="M7.29297 18.707C7.48828 18.9023 7.74414 19 8 19C8.25586 19 8.51172 18.9023 8.70703 18.707L10.707 16.707C11.0977 16.3164 11.0977 15.6836 10.707 15.293C10.3164 14.9023 9.68359 14.9023 9.29297 15.293L8 16.5859L7.70703 16.293C7.31641 15.9023 6.68359 15.9023 6.29297 16.293C5.90234 16.6836 5.90234 17.3164 6.29297 17.707L7.29297 18.707Z" fill="#FF7671"/>
</svg>
